<svg width="340" height="140" viewBox="0 0 340 140" fill="none" xmlns="http://www.w3.org/2000/svg">
<g filter="url(#filter0_d_52_486)">
<path d="M12.0583 4.02921L1.20642 7.45875C1.08793 7.4962 1.01493 7.61498 1.03505 7.73761L2.64347 17.5408C2.64567 17.5542 2.64677 17.5677 2.64677 17.5813V33.3699C2.64677 33.508 2.7587 33.6199 2.89677 33.6199H7.56008C7.75378 33.6199 7.8739 33.8307 7.77516 33.9974L2.87039 42.2757C2.77166 42.4424 2.89177 42.6531 3.08548 42.6531H5.94288C6.12984 42.6531 6.25064 42.8508 6.16535 43.0172L4.31859 46.6191C4.30209 46.6512 4.29277 46.6866 4.29127 46.7227L2.65043 86.2256C2.64806 86.2826 2.66523 86.3387 2.69909 86.3845L6.26464 91.2138C6.31857 91.2868 6.32866 91.3833 6.29101 91.4659L4.31606 95.7993C4.30122 95.8319 4.29354 95.8672 4.29354 95.903V121.855C4.29354 121.913 4.31359 121.969 4.35026 122.014L14.1118 133.913C14.1519 133.962 14.209 133.994 14.2716 134.002L36.3778 136.996C36.3963 136.999 36.415 136.999 36.4336 136.998L70.1644 133.989H88.9212C89.0293 133.989 89.1251 133.92 89.1588 133.817L92.2133 124.508C92.2819 124.299 92.5678 124.275 92.6714 124.469L97.6749 133.852C97.7196 133.936 97.8079 133.987 97.9028 133.984L166.338 131.986C166.437 131.983 166.525 131.923 166.562 131.831L170.265 122.805C170.362 122.569 170.709 122.613 170.744 122.866L172.213 133.611C172.237 133.789 172.437 133.884 172.59 133.79L175.438 132.055C175.512 132.009 175.558 131.928 175.558 131.841V127.9C175.558 127.644 175.897 127.554 176.025 127.776L178.372 131.864C178.414 131.938 178.49 131.985 178.575 131.989L212.564 133.986C212.595 133.988 212.625 133.984 212.654 133.975L225.238 130.017C225.321 129.99 225.413 130.01 225.479 130.068L229.827 133.923C229.875 133.966 229.937 133.988 230 133.986L305.241 131.982L328.57 133.977C328.656 133.984 328.739 133.947 328.791 133.878L337.715 122.011C337.747 121.968 337.765 121.915 337.765 121.861V100.502C337.765 100.417 337.722 100.338 337.65 100.291L331.479 96.3088C331.27 96.1736 331.365 95.8487 331.615 95.8487H337.343C337.533 95.8487 337.654 95.6453 337.563 95.4788L334.602 90.065C334.532 89.9366 334.586 89.7757 334.72 89.7165L338.823 87.8975C338.927 87.8514 338.987 87.7408 338.969 87.6285L336.123 70.2815C336.12 70.2636 336.119 70.2455 336.12 70.2274L337.755 40.3307C337.761 40.2199 337.693 40.1185 337.589 40.0814L330.896 37.7081C330.683 37.6328 330.671 37.337 330.876 37.2445L334.013 35.8333C334.202 35.7487 334.212 35.4852 334.031 35.3861L332.785 34.7036C332.618 34.6122 332.61 34.375 332.771 34.2732L337.627 31.1978C337.711 31.1448 337.755 31.0476 337.741 30.9497L336.124 20.1107C336.12 20.0838 336.121 20.0565 336.125 20.0297L338.963 4.21786C338.984 4.09831 338.917 3.98063 338.803 3.93891L330.885 1.04347C330.81 1.01614 330.727 1.02602 330.661 1.07008L326.3 3.96925C326.259 3.99652 326.211 4.01107 326.162 4.01107H309.358L294.564 6.01486C294.546 6.01725 294.528 6.01775 294.51 6.01635L269.282 4.03227C269.136 4.02084 269.012 4.13571 269.012 4.2815V6.89181C269.012 7.11844 268.735 7.22814 268.58 7.0628L265.799 4.09694C265.748 4.04256 265.676 4.01376 265.601 4.01841L233.841 6.0038C233.709 6.01203 233.607 6.1213 233.607 6.25331V13.8809C233.607 14.1505 233.239 14.2291 233.128 13.983L228.983 4.71976C228.884 4.49808 228.559 4.53374 228.51 4.77164L227.264 10.8465C227.21 11.1128 226.829 11.1128 226.775 10.8465L225.414 4.21084C225.39 4.09455 225.287 4.01107 225.169 4.01107H201.537C201.509 4.01107 201.481 4.01577 201.455 4.02498L195.801 5.99417C195.755 6.01002 195.706 6.01238 195.659 6.00096L187.593 4.0346C187.531 4.01949 187.466 4.02864 187.411 4.06018L181.411 7.47333C181.354 7.50579 181.286 7.5145 181.223 7.49759L168.238 4.0351C168.179 4.0196 168.118 4.02559 168.064 4.05195L164.089 5.99009C164.05 6.00869 164.008 6.01727 163.966 6.01502L126.224 4.01475C126.179 4.01234 126.133 4.02239 126.093 4.04381L119.8 7.40011C119.674 7.46747 119.517 7.41524 119.456 7.28564L117.996 4.17139C117.951 4.07534 117.85 4.01816 117.745 4.02876L82.9447 7.5222C82.9329 7.52339 82.9209 7.52373 82.909 7.52322L48.0578 6.02382C47.9792 6.02044 47.9037 6.05423 47.8538 6.11503L44.8509 9.77542C44.7452 9.9043 44.5454 9.89556 44.4513 9.75794L40.6083 4.13653C40.5556 4.05945 40.4644 4.01816 40.3717 4.02946L24.0908 6.01407C24.0669 6.01697 24.0428 6.01643 24.0191 6.01244L12.1751 4.02105C12.1361 4.01449 12.096 4.01729 12.0583 4.02921Z" stroke="black" shape-rendering="crispEdges"/>
</g>
<path d="M337.5 122.5H327.297C327.142 122.5 327.024 122.64 327.051 122.793L329 134" stroke="black"/>
<path d="M14.5 134.5L14.0102 120.784C14.0048 120.634 13.8681 120.522 13.7192 120.547L5 122" stroke="black"/>
<defs>
<filter id="filter0_d_52_486" x="0.531738" y="0.528259" width="338.94" height="137.97" filterUnits="userSpaceOnUse" color-interpolation-filters="sRGB">
<feFlood flood-opacity="0" result="BackgroundImageFix"/>
<feColorMatrix in="SourceAlpha" type="matrix" values="0 0 0 0 0 0 0 0 0 0 0 0 0 0 0 0 0 0 127 0" result="hardAlpha"/>
<feOffset dy="1"/>
<feComposite in2="hardAlpha" operator="out"/>
<feColorMatrix type="matrix" values="0 0 0 0 0 0 0 0 0 0 0 0 0 0 0 0 0 0 1 0"/>
<feBlend mode="normal" in2="BackgroundImageFix" result="effect1_dropShadow_52_486"/>
<feBlend mode="normal" in="SourceGraphic" in2="effect1_dropShadow_52_486" result="shape"/>
</filter>
</defs>
</svg>
